<svg width="39" height="39" viewBox="0 0 39 39" fill="none" xmlns="http://www.w3.org/2000/svg">
  <circle cx="19.5" cy="19.5" r="17.5" stroke="#EFCFAD" stroke-width="2"/>
  <path d="M36.093 13.7722C35.569 12.1616 34.832 10.6483 33.9125 9.2656L17.7188 26.1324L17.7513 28.0095L18.5157 28.0046L36.093 13.7722Z" fill="#A4907D"/>
  <path d="M39 7C38.7631 5.77238 36.5 5.0001 36.5 5.0001C36.0497 4.55499 33.4503 7.05569 33 7.5008L18.073 23.0005L11.5 15.5005C11.049 15.0554 9.95066 14.5554 9.5 15.0005L7.36115 16.4298C6.91087 16.8745 6.91087 17.596 7.36115 18.0408L17.1214 27.6834C17.3815 27.9405 17.7341 28.0441 18.073 28.0041C18.4119 28.0437 18.7646 27.9405 19.0247 27.6834L37.0296 9.8945C37.4799 9.4494 39.2591 8.34266 39 7Z" fill="white"/>
  <path d="M19.0243 27.682L37.0292 9.8931C38.5 8.99972 39.4503 7.44483 39 6.99972C38.5497 6.55461 36.4909 7.74972 36.4909 7.74972L17.9698 25.9667L7.76964 16.024L7.36116 16.4281C6.91087 16.8728 6.91087 17.5943 7.36116 18.0391L17.121 27.682C17.3811 27.9391 17.7337 28.0427 18.0727 28.0028C18.4116 28.0427 18.7642 27.9395 19.0243 27.682Z" fill="#EFCFAD"/>
</svg>
