<?xml version="1.0" standalone="no"?>
<!DOCTYPE svg PUBLIC "-//W3C//DTD SVG 20010904//EN"
 "http://www.w3.org/TR/2001/REC-SVG-20010904/DTD/svg10.dtd">
<svg version="1.0" xmlns="http://www.w3.org/2000/svg"
 width="64.000000pt" height="64.000000pt" viewBox="0 0 1024.000000 1024.000000"
 preserveAspectRatio="xMidYMid meet">

<g transform="translate(0.000000,1024.000000) scale(0.100000,-0.100000)"
fill="#ffffff" stroke="none">
<path d="M5063 9638 c-36 -38 -208 -257 -519 -663 -348 -454 -455 -590 -464
-590 -4 0 -54 56 -110 125 -136 168 -243 288 -255 289 -5 1 -32 -27 -60 -62
-27 -34 -95 -116 -150 -182 -108 -129 -365 -444 -429 -529 -22 -28 -90 -114
-151 -191 -61 -77 -144 -183 -185 -235 -70 -89 -493 -618 -589 -736 l-44 -54
12 -137 c35 -408 78 -603 191 -868 138 -327 287 -548 550 -819 230 -238 538
-453 873 -611 321 -150 557 -213 959 -255 532 -55 680 -52 1108 26 170 31 292
64 445 119 442 160 747 358 1116 725 211 209 321 364 468 657 169 337 228 554
253 929 l12 182 -26 34 c-14 18 -79 94 -144 169 -66 74 -166 191 -224 259 -58
68 -132 156 -165 195 -78 91 -398 481 -500 610 -44 55 -123 150 -175 210 -52
61 -130 153 -172 205 -42 52 -121 150 -175 216 -122 151 -216 262 -223 263 -3
1 -30 -31 -60 -71 -74 -97 -210 -263 -218 -265 -4 -1 -73 82 -155 185 -204
259 -376 469 -552 677 -82 97 -159 188 -170 201 -27 31 -35 30 -72 -8z m167
-414 c164 -209 289 -361 482 -586 92 -108 168 -200 168 -203 0 -5 -133 -181
-315 -415 l-80 -103 -91 97 c-50 53 -118 132 -150 176 -32 44 -61 80 -64 80
-3 0 -27 -28 -55 -62 -27 -34 -88 -107 -135 -162 -47 -56 -132 -158 -189 -229
-56 -70 -107 -129 -111 -132 -9 -6 -103 100 -333 374 l-146 173 71 86 c157
192 395 493 603 764 121 158 222 287 225 287 3 0 57 -65 120 -145z m1231 -829
c94 -110 210 -247 257 -305 48 -58 123 -148 168 -200 85 -98 709 -840 801
-951 29 -35 51 -64 49 -66 -1 -2 -37 6 -79 16 -41 11 -151 30 -244 42 -302 39
-675 14 -993 -66 -23 -5 -40 12 -180 172 -85 98 -187 214 -225 258 -39 44
-138 159 -219 255 -82 96 -158 185 -169 197 l-19 22 45 53 c25 29 87 108 139
174 51 67 152 194 224 282 73 88 160 196 194 241 34 45 66 81 71 79 4 -2 86
-93 180 -203z m-2587 -79 c59 -75 110 -133 343 -397 276 -314 342 -393 335
-405 -4 -7 -70 -85 -147 -174 -77 -89 -175 -206 -218 -259 -43 -53 -84 -97
-91 -99 -7 -2 -67 11 -132 27 -319 80 -737 112 -1004 77 -114 -16 -310 -57
-402 -86 -32 -10 -58 -16 -58 -14 0 3 94 121 208 262 114 141 223 277 242 302
98 129 320 402 429 530 136 158 320 387 328 408 6 13 78 -62 167 -172z m1624
-725 c59 -69 128 -148 153 -175 164 -182 534 -615 528 -619 -2 -1 -48 -17
-102 -35 -181 -60 -545 -191 -689 -249 l-142 -56 -71 36 c-38 20 -144 78 -235
128 -91 51 -223 120 -295 154 -124 60 -311 135 -335 135 -7 0 3 18 22 39 295
346 808 958 842 1006 7 9 38 -21 113 -114 57 -69 152 -182 211 -250z m-1970
-692 c473 -51 828 -174 1397 -484 148 -81 260 -139 680 -355 315 -161 881
-347 1205 -395 247 -36 552 -30 749 16 46 11 86 18 88 16 8 -9 -114 -211 -188
-309 -32 -43 -40 -47 -149 -81 -277 -86 -488 -103 -830 -66 -189 20 -443 82
-694 169 -183 64 -274 103 -515 225 -169 85 -274 146 -681 394 -299 183 -539
276 -877 340 -202 39 -327 51 -522 51 -299 0 -593 -56 -773 -146 l-48 -24 -6
27 c-3 16 -10 44 -15 63 -9 39 -51 381 -47 385 12 10 186 70 286 99 115 33
217 54 372 75 94 12 454 13 568 0z m3798 -149 c221 -18 465 -71 558 -123 l22
-12 -29 -180 c-16 -99 -30 -181 -31 -182 -1 -1 -37 9 -80 23 -113 35 -350 81
-500 95 -149 14 -410 7 -556 -16 -204 -31 -501 -116 -687 -197 l-93 -41 -47
18 c-27 9 -133 58 -236 108 -130 63 -183 93 -173 99 17 9 213 82 486 180 107
38 227 81 265 95 188 67 389 111 625 136 78 8 355 6 476 -3z m-3726 -539 c148
-26 285 -67 479 -144 200 -78 346 -153 518 -265 524 -341 876 -508 1349 -641
331 -93 581 -126 884 -118 139 4 221 12 285 26 50 10 91 18 92 17 5 -5 -211
-191 -307 -265 -129 -100 -174 -119 -317 -136 -139 -17 -443 -19 -598 -5 -279
26 -623 106 -860 200 -264 105 -415 188 -780 428 -213 141 -337 209 -502 276
-418 171 -783 191 -1171 65 -61 -20 -64 -21 -77 -3 -20 26 -122 253 -156 347
l-29 78 67 30 c135 61 254 91 513 128 111 17 478 6 610 -18z m3809 -50 c68
-12 175 -35 238 -51 64 -17 123 -30 133 -30 17 0 17 -4 5 -47 -20 -76 -42
-121 -62 -127 -10 -3 -70 -16 -134 -30 -393 -84 -825 -50 -1289 103 l-115 38
48 21 c150 67 325 113 516 138 158 20 501 12 660 -15z m-3949 -645 c203 -42
409 -134 677 -303 584 -368 747 -453 1084 -567 321 -108 567 -155 853 -163
226 -7 226 -6 16 -68 -207 -61 -413 -102 -614 -123 -146 -15 -632 -8 -781 12
-279 36 -554 105 -774 195 -214 87 -506 258 -691 406 -155 124 -375 354 -503
527 l-27 37 77 24 c68 22 119 32 258 51 76 11 315 -5 425 -28z"/>
<path d="M6024 3770 c-161 -43 -166 -45 -162 -77 2 -20 11 -29 37 -38 19 -6
44 -24 55 -39 20 -27 21 -41 24 -474 3 -509 4 -500 -75 -537 -36 -16 -43 -24
-43 -47 l0 -28 219 0 c218 0 219 0 225 23 10 38 7 45 -23 52 -16 3 -39 17 -52
31 l-24 26 1 569 1 569 -36 0 c-20 -1 -86 -14 -147 -30z"/>
<path d="M6665 3793 c-128 -29 -272 -68 -281 -74 -6 -5 -11 -19 -10 -31 1 -18
9 -24 40 -29 79 -13 76 8 76 -518 0 -353 -3 -472 -13 -491 -11 -21 -25 -31
-87 -60 -8 -4 -15 -18 -15 -31 l0 -24 223 -3 222 -2 0 35 c0 32 -3 36 -30 42
-17 3 -40 17 -51 32 -21 26 -21 33 -17 594 3 562 3 567 -17 566 -11 -1 -29 -3
-40 -6z"/>
<path d="M943 3703 c-7 -3 -13 -20 -13 -38 0 -30 4 -35 45 -50 80 -31 80 -31
80 -249 0 -405 -21 -640 -61 -702 -19 -28 -82 -64 -114 -64 -14 0 -20 -6 -20
-22 0 -48 5 -49 206 -46 l189 3 3 33 c3 30 1 32 -27 32 -17 0 -42 10 -58 24
l-28 24 3 259 c2 142 4 269 6 283 2 14 4 77 5 140 0 64 5 110 10 105 9 -11 97
-236 156 -400 63 -173 178 -469 188 -482 5 -7 24 -13 42 -13 18 0 37 6 42 13
12 15 74 184 183 492 44 127 96 271 114 320 19 50 37 99 40 109 4 10 8 17 10
15 3 -2 10 -185 16 -405 14 -465 16 -450 -70 -479 -45 -15 -50 -20 -50 -46 l0
-29 265 0 265 0 0 30 c0 26 -4 30 -37 36 -54 9 -70 20 -90 57 -16 29 -18 74
-21 469 -2 276 0 444 7 455 5 10 33 27 63 38 49 20 53 23 53 54 l0 34 -170 4
c-93 3 -188 2 -211 -2 l-43 -6 -40 -102 c-50 -131 -98 -260 -154 -417 -65
-181 -89 -240 -97 -240 -4 0 -12 12 -18 28 -6 15 -57 151 -115 302 -57 151
-118 310 -134 353 l-29 79 -190 2 c-104 2 -195 1 -201 -1z"/>
<path d="M4635 3564 c-44 -41 -120 -107 -168 -146 -74 -60 -88 -75 -85 -97 3
-24 7 -26 56 -29 l52 -3 0 -283 c0 -308 7 -357 56 -416 57 -67 151 -85 261
-52 73 23 193 95 193 117 0 7 -8 23 -18 35 l-18 22 -45 -23 c-54 -28 -141 -32
-165 -7 -26 26 -33 95 -33 345 l-1 232 128 3 127 3 3 53 3 52 -125 0 -126 0 0
135 c0 74 -3 135 -7 135 -5 -1 -44 -35 -88 -76z"/>
<path d="M5330 3387 c-118 -40 -208 -115 -258 -212 -122 -241 -15 -558 216
-636 163 -56 328 -8 458 133 52 56 64 79 53 100 -14 26 -26 23 -72 -18 -92
-84 -226 -112 -312 -67 -89 46 -157 159 -167 273 l-3 35 260 5 260 5 -1 60 c0
33 -6 78 -12 100 -31 106 -132 200 -248 230 -76 20 -96 19 -174 -8z m123 -89
c12 -6 27 -17 35 -24 25 -26 52 -100 52 -146 l0 -48 -151 0 -151 0 7 33 c20
98 61 168 109 187 30 13 74 12 99 -2z"/>
<path d="M2754 3385 c-143 -31 -230 -100 -279 -224 -75 -187 -48 -387 70 -519
149 -165 457 -178 626 -25 91 82 134 208 127 373 -4 93 -8 115 -36 173 -86
185 -283 271 -508 222z m182 -100 c52 -40 90 -115 108 -214 38 -205 4 -401
-78 -453 -24 -15 -44 -18 -90 -15 -57 3 -62 6 -103 51 -67 74 -88 154 -88 336
0 157 15 232 58 279 52 56 131 63 193 16z"/>
<path d="M3540 3355 c-74 -25 -141 -45 -147 -45 -8 0 -13 -14 -13 -35 0 -32 3
-35 28 -35 17 0 38 -10 51 -24 22 -23 22 -26 19 -294 -3 -246 -5 -272 -22
-290 -10 -12 -31 -24 -47 -27 -25 -6 -29 -11 -29 -41 l0 -34 223 2 222 3 0 28
c0 24 -6 31 -39 42 -21 8 -44 19 -50 25 -8 8 -11 94 -11 278 l0 267 55 32 c68
41 135 45 167 11 37 -40 45 -100 47 -341 l1 -229 -28 -24 c-15 -13 -39 -24
-53 -24 -21 0 -24 -5 -24 -35 l0 -35 219 0 c218 0 219 0 225 23 10 39 7 45
-29 51 -64 12 -69 35 -76 331 -6 289 -12 320 -74 392 -45 53 -80 66 -162 61
-85 -5 -159 -38 -231 -103 l-54 -48 4 79 c3 73 1 79 -17 81 -11 1 -81 -18
-155 -42z"/>
<path d="M7181 3380 c-125 -34 -193 -86 -245 -189 -70 -138 -74 -342 -10 -461
63 -117 175 -191 317 -211 303 -44 507 132 507 437 0 164 -60 290 -174 369
-100 68 -262 91 -395 55z m167 -75 c20 -9 47 -26 60 -38 61 -56 102 -199 102
-350 0 -232 -73 -344 -205 -315 -120 27 -183 189 -172 438 7 162 37 232 112
266 39 17 58 17 103 -1z"/>
<path d="M8085 3385 c-22 -8 -88 -31 -147 -51 -103 -34 -108 -37 -108 -64 0
-29 15 -40 55 -40 14 0 32 -11 44 -26 20 -25 21 -39 21 -234 0 -290 -10 -331
-90 -369 -26 -12 -36 -23 -38 -44 l-3 -27 255 0 256 0 0 29 c0 26 -4 30 -40
36 -51 9 -102 43 -111 75 -4 14 -7 118 -8 231 l-1 206 35 46 c19 25 40 47 47
50 7 2 40 -11 74 -29 98 -54 169 -42 209 36 20 38 19 100 -1 128 -37 54 -151
79 -212 48 -30 -16 -108 -95 -138 -141 l-19 -29 -5 89 c-6 101 -9 104 -75 80z"/>
<path d="M8858 3381 c-158 -52 -266 -176 -232 -265 4 -12 20 -16 55 -16 44 0
54 5 93 40 24 22 58 67 76 101 37 70 64 87 117 73 56 -14 77 -58 78 -158 l0
-80 -166 -76 c-201 -92 -212 -99 -250 -158 -23 -37 -29 -57 -29 -104 0 -76 17
-116 70 -160 100 -86 252 -71 358 34 28 27 42 36 42 25 0 -24 50 -78 87 -93
55 -24 121 -18 180 16 56 32 77 59 67 84 -8 20 -17 20 -55 1 -22 -12 -34 -13
-49 -5 -11 6 -21 12 -22 13 -1 1 -4 130 -7 287 -6 267 -7 288 -28 325 -25 47
-65 86 -113 110 -53 27 -199 30 -272 6z m189 -634 c-13 -28 -97 -77 -133 -77
-45 0 -84 47 -84 101 0 71 30 107 161 193 l54 36 5 -117 c3 -65 1 -126 -3
-136z"/>
<path d="M3020 2049 l0 -140 27 3 c19 2 41 22 80 73 68 90 96 105 195 105 l78
0 0 -440 c0 -473 -2 -489 -51 -524 -13 -9 -38 -16 -57 -16 -36 0 -48 -16 -38
-55 l6 -25 279 0 279 0 6 32 c7 37 -4 48 -52 48 -40 0 -86 23 -98 47 -5 10
-10 224 -12 476 l-3 457 83 0 c46 0 94 -6 107 -13 14 -7 54 -49 90 -94 61 -75
91 -100 105 -85 3 3 6 70 6 149 l0 143 -515 0 -515 0 0 -141z"/>
<path d="M4395 1894 c-108 -22 -136 -29 -173 -46 -60 -27 -129 -98 -157 -163
-117 -263 -39 -534 182 -638 58 -27 80 -31 172 -35 125 -5 195 10 278 60 98
59 164 172 185 316 21 150 -30 299 -134 399 -84 79 -246 128 -353 107z m140
-126 c76 -77 111 -221 102 -413 -5 -115 -21 -170 -60 -213 -81 -88 -191 -64
-254 55 -41 76 -53 148 -53 306 0 225 45 307 169 307 50 0 57 -3 96 -42z"/>
<path d="M6486 1890 c-46 -14 -88 -49 -136 -112 l-45 -60 -3 86 c-2 69 -6 86
-18 86 -18 0 -282 -78 -305 -90 -9 -5 -15 -19 -14 -32 1 -18 11 -25 47 -36 31
-8 48 -20 56 -38 8 -17 12 -105 12 -265 0 -281 -3 -294 -74 -328 -38 -17 -47
-26 -44 -44 3 -22 4 -22 251 -25 l247 -2 0 29 c0 26 -4 30 -47 41 -100 24
-103 32 -103 295 l0 216 48 50 47 50 48 -31 c116 -78 227 -31 227 94 0 39 -5
53 -28 76 -27 26 -88 51 -122 49 -8 0 -28 -5 -44 -9z"/>
<path d="M5185 1879 c-247 -52 -235 -49 -235 -75 0 -18 7 -25 28 -30 15 -4 37
-16 50 -27 22 -20 22 -24 22 -276 0 -248 1 -258 24 -307 34 -73 79 -120 133
-138 94 -32 165 -16 286 65 34 24 65 47 69 53 4 6 8 -22 8 -61 0 -86 -13 -81
149 -53 195 35 185 32 188 63 2 24 -2 27 -26 27 -16 0 -39 9 -52 19 l-24 19
-3 366 -3 366 -27 0 c-35 0 -226 -36 -274 -51 -30 -10 -38 -17 -38 -36 0 -24
4 -27 52 -37 53 -12 59 -40 56 -303 l-3 -238 -45 -22 c-58 -29 -131 -39 -168
-24 -15 7 -37 26 -48 44 -18 30 -19 56 -22 350 l-3 317 -27 -1 c-15 -1 -45 -5
-67 -10z"/>
<path d="M6937 1879 c-172 -40 -246 -198 -167 -356 37 -74 69 -97 210 -153
157 -62 189 -87 190 -148 0 -97 -101 -153 -193 -106 -52 27 -154 122 -182 170
-41 70 -50 55 -53 -90 l-3 -127 37 -15 c61 -25 203 -46 279 -41 90 6 153 34
214 96 74 73 101 188 69 294 -20 67 -63 98 -222 162 -147 59 -195 91 -210 142
-22 73 104 130 197 89 28 -13 131 -105 165 -149 26 -34 32 -16 32 93 0 128 4
123 -113 139 -91 13 -196 13 -250 0z"/>
</g>
</svg>
