<svg width="439" height="37" viewBox="0 0 439 37" fill="none" xmlns="http://www.w3.org/2000/svg">
<rect width="439" height="37" rx="4" fill="#282829" fill-opacity="0.7"/>
<g clip-path="url(#clip0_65_591)">
<path d="M18.5 1C28.165 1 36 8.83502 36 18.5C36 28.165 28.165 36 18.5 36C8.83502 36 1 28.165 1 18.5C1 8.83502 8.83502 1 18.5 1Z" stroke="#EFCFAD" stroke-width="2"/>
<path d="M36.093 12.7722C35.569 11.1616 34.832 9.64832 33.9125 8.26562L17.7188 25.1324L17.7513 27.0095L18.5157 27.0046L36.093 12.7722Z" fill="#A4907D"/>
<path d="M39 6C38.7631 4.77238 36.5 4.0001 36.5 4.0001C36.0497 3.55499 33.4503 6.05569 33 6.5008L18.073 22.0005L11.5 14.5005C11.049 14.0554 9.95066 13.5554 9.5 14.0005L7.36115 15.4298C6.91087 15.8745 6.91087 16.596 7.36115 17.0408L17.1214 26.6834C17.3815 26.9405 17.7341 27.0441 18.073 27.0041C18.4119 27.0437 18.7646 26.9405 19.0247 26.6834L37.0296 8.89449C37.4799 8.44938 39.2591 7.34266 39 6Z" fill="white"/>
<path d="M19.0243 26.682L37.0292 8.89313C38.5 7.99972 39.4503 6.44483 39 5.99972C38.5497 5.55461 36.4909 6.74972 36.4909 6.74972L17.9698 24.9667L7.76964 15.024L7.36116 15.4281C6.91087 15.8728 6.91087 16.5943 7.36116 17.0391L17.121 26.682C17.3811 26.9391 17.7337 27.0427 18.0727 27.0028C18.4116 27.0427 18.7642 26.9395 19.0243 26.682Z" fill="#EFCFAD"/>
</g>
<path d="M67.1698 35.3C65.5165 35.3 63.9965 34.98 62.6098 34.34C61.2498 33.7 60.1698 32.8333 59.3698 31.74C58.5698 30.6467 58.1698 29.42 58.1698 28.06C58.1698 26.9667 58.4765 26.1133 59.0898 25.5C59.7032 24.86 60.4365 24.54 61.2898 24.54C62.0898 24.54 62.7832 24.7933 63.3698 25.3C63.9565 25.8067 64.2498 26.54 64.2498 27.5C62.8365 28.1933 62.1298 29.26 62.1298 30.7C62.1298 31.7933 62.5832 32.6867 63.4898 33.38C64.4232 34.0467 65.6498 34.38 67.1698 34.38C69.0898 34.38 70.6498 33.66 71.8498 32.22C73.0498 30.78 73.6498 28.7667 73.6498 26.18C73.6498 23.38 72.8498 21.22 71.2498 19.7C69.6498 18.1533 67.2898 17.2867 64.1698 17.1V16.22C66.9698 16.06 69.1432 15.3133 70.6898 13.98C72.2632 12.62 73.0498 10.7933 73.0498 8.5C73.0498 6.71333 72.5565 5.28667 71.5698 4.22C70.6098 3.15333 69.3165 2.62 67.6898 2.62C66.2232 2.62 65.0632 2.87333 64.2098 3.38C63.3832 3.86 62.9698 4.54 62.9698 5.42C62.9698 6.83333 63.6365 7.84667 64.9698 8.46C64.9698 9.36667 64.6898 10.0733 64.1298 10.58C63.5965 11.06 62.9432 11.3 62.1698 11.3C61.3698 11.3 60.6765 10.9933 60.0898 10.38C59.5032 9.76666 59.2098 8.95333 59.2098 7.94C59.2098 6.74 59.6232 5.67333 60.4498 4.74C61.2765 3.78 62.3698 3.03333 63.7298 2.5C65.1165 1.96667 66.5832 1.7 68.1298 1.7C71.1698 1.7 73.5432 2.31333 75.2498 3.54C76.9565 4.76666 77.8098 6.48666 77.8098 8.7C77.8098 11.02 76.9698 12.82 75.2898 14.1C73.6365 15.3533 71.2232 16.1933 68.0498 16.62V16.74C71.3832 16.9 74.0632 17.7933 76.0898 19.42C78.1432 21.02 79.1698 23.2733 79.1698 26.18C79.1698 27.8067 78.7165 29.3133 77.8098 30.7C76.9298 32.0867 75.5832 33.2067 73.7698 34.06C71.9832 34.8867 69.7832 35.3 67.1698 35.3ZM96.8145 35.3C94.4945 35.3 92.4679 34.6733 90.7345 33.42C89.0012 32.1667 87.6545 30.2867 86.6945 27.78C85.7345 25.2467 85.2545 22.1533 85.2545 18.5C85.2545 14.8467 85.7345 11.7667 86.6945 9.26C87.6545 6.72667 89.0012 4.83333 90.7345 3.58C92.4679 2.32666 94.4945 1.7 96.8145 1.7C99.1345 1.7 101.161 2.32666 102.895 3.58C104.628 4.83333 105.975 6.72667 106.935 9.26C107.895 11.7667 108.375 14.8467 108.375 18.5C108.375 22.1533 107.895 25.2467 106.935 27.78C105.975 30.2867 104.628 32.1667 102.895 33.42C101.161 34.6733 99.1345 35.3 96.8145 35.3ZM96.8145 34.38C98.8145 34.38 100.388 33.4067 101.535 31.46C102.681 29.5133 103.255 26.4733 103.255 22.34V14.62C103.255 10.5133 102.681 7.48667 101.535 5.54C100.388 3.59333 98.8145 2.62 96.8145 2.62C94.8145 2.62 93.2412 3.59333 92.0945 5.54C90.9479 7.48667 90.3745 10.5133 90.3745 14.62V22.34C90.3745 26.4467 90.9479 29.4867 92.0945 31.46C93.2412 33.4067 94.8145 34.38 96.8145 34.38ZM120.186 19.7C118.293 19.7 116.759 18.9533 115.586 17.46C114.439 15.94 113.866 13.78 113.866 10.98C113.866 8.18 114.439 6.03333 115.586 4.54C116.759 3.04666 118.293 2.3 120.186 2.3C122.106 2.3 123.639 3.04666 124.786 4.54C125.959 6.03333 126.546 8.18 126.546 10.98C126.546 13.78 125.959 15.94 124.786 17.46C123.639 18.9533 122.106 19.7 120.186 19.7ZM119.906 34.5L135.906 2.5H137.946L121.986 34.5H119.906ZM120.186 18.82C121.253 18.82 122.053 18.3667 122.586 17.46C123.146 16.5533 123.426 15.0733 123.426 13.02V8.94C123.426 6.88667 123.146 5.40667 122.586 4.5C122.053 3.59333 121.253 3.14 120.186 3.14C119.146 3.14 118.346 3.59333 117.786 4.5C117.226 5.40667 116.946 6.88667 116.946 8.94V13.02C116.946 15.0733 117.226 16.5533 117.786 17.46C118.346 18.3667 119.146 18.82 120.186 18.82ZM137.666 34.7C135.746 34.7 134.199 33.9533 133.026 32.46C131.879 30.94 131.306 28.78 131.306 25.98C131.306 23.18 131.879 21.0333 133.026 19.54C134.199 18.0467 135.746 17.3 137.666 17.3C139.559 17.3 141.079 18.0467 142.226 19.54C143.399 21.0333 143.986 23.18 143.986 25.98C143.986 28.78 143.399 30.94 142.226 32.46C141.079 33.9533 139.559 34.7 137.666 34.7ZM137.666 33.82C138.706 33.82 139.506 33.3667 140.066 32.46C140.626 31.5533 140.906 30.0733 140.906 28.02V23.94C140.906 21.8867 140.626 20.4067 140.066 19.5C139.506 18.5933 138.706 18.14 137.666 18.14C136.599 18.14 135.786 18.5933 135.226 19.5C134.693 20.4067 134.426 21.8867 134.426 23.94V28.02C134.426 30.0733 134.693 31.5533 135.226 32.46C135.786 33.3667 136.599 33.82 137.666 33.82Z" fill="white"/>
<path d="M161.902 23.2852L163.988 22.957C164.105 23.793 164.43 24.4336 164.961 24.8789C165.5 25.3242 166.25 25.5469 167.211 25.5469C168.18 25.5469 168.898 25.3516 169.367 24.9609C169.836 24.5625 170.07 24.0977 170.07 23.5664C170.07 23.0898 169.863 22.7148 169.449 22.4414C169.16 22.2539 168.441 22.0156 167.293 21.7266C165.746 21.3359 164.672 21 164.07 20.7188C163.477 20.4297 163.023 20.0352 162.711 19.5352C162.406 19.0273 162.254 18.4688 162.254 17.8594C162.254 17.3047 162.379 16.793 162.629 16.3242C162.887 15.8477 163.234 15.4531 163.672 15.1406C164 14.8984 164.445 14.6953 165.008 14.5312C165.578 14.3594 166.188 14.2734 166.836 14.2734C167.812 14.2734 168.668 14.4141 169.402 14.6953C170.145 14.9766 170.691 15.3594 171.043 15.8438C171.395 16.3203 171.637 16.9609 171.77 17.7656L169.707 18.0469C169.613 17.4062 169.34 16.9062 168.887 16.5469C168.441 16.1875 167.809 16.0078 166.988 16.0078C166.02 16.0078 165.328 16.168 164.914 16.4883C164.5 16.8086 164.293 17.1836 164.293 17.6133C164.293 17.8867 164.379 18.1328 164.551 18.3516C164.723 18.5781 164.992 18.7656 165.359 18.9141C165.57 18.9922 166.191 19.1719 167.223 19.4531C168.715 19.8516 169.754 20.1797 170.34 20.4375C170.934 20.6875 171.398 21.0547 171.734 21.5391C172.07 22.0234 172.238 22.625 172.238 23.3438C172.238 24.0469 172.031 24.7109 171.617 25.3359C171.211 25.9531 170.621 26.4336 169.848 26.7773C169.074 27.1133 168.199 27.2812 167.223 27.2812C165.605 27.2812 164.371 26.9453 163.52 26.2734C162.676 25.6016 162.137 24.6055 161.902 23.2852ZM183.266 22.9922L185.445 23.2617C185.102 24.5352 184.465 25.5234 183.535 26.2266C182.605 26.9297 181.418 27.2812 179.973 27.2812C178.152 27.2812 176.707 26.7227 175.637 25.6055C174.574 24.4805 174.043 22.9062 174.043 20.8828C174.043 18.7891 174.582 17.1641 175.66 16.0078C176.738 14.8516 178.137 14.2734 179.855 14.2734C181.52 14.2734 182.879 14.8398 183.934 15.9727C184.988 17.1055 185.516 18.6992 185.516 20.7539C185.516 20.8789 185.512 21.0664 185.504 21.3164H176.223C176.301 22.6836 176.688 23.7305 177.383 24.457C178.078 25.1836 178.945 25.5469 179.984 25.5469C180.758 25.5469 181.418 25.3438 181.965 24.9375C182.512 24.5312 182.945 23.8828 183.266 22.9922ZM176.34 19.582H183.289C183.195 18.5352 182.93 17.75 182.492 17.2266C181.82 16.4141 180.949 16.0078 179.879 16.0078C178.91 16.0078 178.094 16.332 177.43 16.9805C176.773 17.6289 176.41 18.4961 176.34 19.582ZM196.18 27V25.4297C195.391 26.6641 194.23 27.2812 192.699 27.2812C191.707 27.2812 190.793 27.0078 189.957 26.4609C189.129 25.9141 188.484 25.1523 188.023 24.1758C187.57 23.1914 187.344 22.0625 187.344 20.7891C187.344 19.5469 187.551 18.4219 187.965 17.4141C188.379 16.3984 189 15.6211 189.828 15.082C190.656 14.543 191.582 14.2734 192.605 14.2734C193.355 14.2734 194.023 14.4336 194.609 14.7539C195.195 15.0664 195.672 15.4766 196.039 15.9844V9.82031H198.137V27H196.18ZM189.512 20.7891C189.512 22.3828 189.848 23.5742 190.52 24.3633C191.191 25.1523 191.984 25.5469 192.898 25.5469C193.82 25.5469 194.602 25.1719 195.242 24.4219C195.891 23.6641 196.215 22.5117 196.215 20.9648C196.215 19.2617 195.887 18.0117 195.23 17.2148C194.574 16.418 193.766 16.0195 192.805 16.0195C191.867 16.0195 191.082 16.4023 190.449 17.168C189.824 17.9336 189.512 19.1406 189.512 20.7891ZM216.219 27V25.4297C215.43 26.6641 214.27 27.2812 212.738 27.2812C211.746 27.2812 210.832 27.0078 209.996 26.4609C209.168 25.9141 208.523 25.1523 208.062 24.1758C207.609 23.1914 207.383 22.0625 207.383 20.7891C207.383 19.5469 207.59 18.4219 208.004 17.4141C208.418 16.3984 209.039 15.6211 209.867 15.082C210.695 14.543 211.621 14.2734 212.645 14.2734C213.395 14.2734 214.062 14.4336 214.648 14.7539C215.234 15.0664 215.711 15.4766 216.078 15.9844V9.82031H218.176V27H216.219ZM209.551 20.7891C209.551 22.3828 209.887 23.5742 210.559 24.3633C211.23 25.1523 212.023 25.5469 212.938 25.5469C213.859 25.5469 214.641 25.1719 215.281 24.4219C215.93 23.6641 216.254 22.5117 216.254 20.9648C216.254 19.2617 215.926 18.0117 215.27 17.2148C214.613 16.418 213.805 16.0195 212.844 16.0195C211.906 16.0195 211.121 16.4023 210.488 17.168C209.863 17.9336 209.551 19.1406 209.551 20.7891ZM220.719 20.7773C220.719 18.4727 221.359 16.7656 222.641 15.6562C223.711 14.7344 225.016 14.2734 226.555 14.2734C228.266 14.2734 229.664 14.8359 230.75 15.9609C231.836 17.0781 232.379 18.625 232.379 20.6016C232.379 22.2031 232.137 23.4648 231.652 24.3867C231.176 25.3008 230.477 26.0117 229.555 26.5195C228.641 27.0273 227.641 27.2812 226.555 27.2812C224.812 27.2812 223.402 26.7227 222.324 25.6055C221.254 24.4883 220.719 22.8789 220.719 20.7773ZM222.887 20.7773C222.887 22.3711 223.234 23.5664 223.93 24.3633C224.625 25.1523 225.5 25.5469 226.555 25.5469C227.602 25.5469 228.473 25.1484 229.168 24.3516C229.863 23.5547 230.211 22.3398 230.211 20.707C230.211 19.168 229.859 18.0039 229.156 17.2148C228.461 16.418 227.594 16.0195 226.555 16.0195C225.5 16.0195 224.625 16.4141 223.93 17.2031C223.234 17.9922 222.887 19.1836 222.887 20.7773ZM250.062 22.9922L252.242 23.2617C251.898 24.5352 251.262 25.5234 250.332 26.2266C249.402 26.9297 248.215 27.2812 246.77 27.2812C244.949 27.2812 243.504 26.7227 242.434 25.6055C241.371 24.4805 240.84 22.9062 240.84 20.8828C240.84 18.7891 241.379 17.1641 242.457 16.0078C243.535 14.8516 244.934 14.2734 246.652 14.2734C248.316 14.2734 249.676 14.8398 250.73 15.9727C251.785 17.1055 252.312 18.6992 252.312 20.7539C252.312 20.8789 252.309 21.0664 252.301 21.3164H243.02C243.098 22.6836 243.484 23.7305 244.18 24.457C244.875 25.1836 245.742 25.5469 246.781 25.5469C247.555 25.5469 248.215 25.3438 248.762 24.9375C249.309 24.5312 249.742 23.8828 250.062 22.9922ZM243.137 19.582H250.086C249.992 18.5352 249.727 17.75 249.289 17.2266C248.617 16.4141 247.746 16.0078 246.676 16.0078C245.707 16.0078 244.891 16.332 244.227 16.9805C243.57 17.6289 243.207 18.4961 243.137 19.582ZM254.914 12.2461V9.82031H257.023V12.2461H254.914ZM254.914 27V14.5547H257.023V27H254.914ZM268.402 27V25.1719C267.434 26.5781 266.117 27.2812 264.453 27.2812C263.719 27.2812 263.031 27.1406 262.391 26.8594C261.758 26.5781 261.285 26.2266 260.973 25.8047C260.668 25.375 260.453 24.8516 260.328 24.2344C260.242 23.8203 260.199 23.1641 260.199 22.2656V14.5547H262.309V21.457C262.309 22.5586 262.352 23.3008 262.438 23.6836C262.57 24.2383 262.852 24.6758 263.281 24.9961C263.711 25.3086 264.242 25.4648 264.875 25.4648C265.508 25.4648 266.102 25.3047 266.656 24.9844C267.211 24.6562 267.602 24.2148 267.828 23.6602C268.062 23.0977 268.18 22.2852 268.18 21.2227V14.5547H270.289V27H268.402ZM272.762 23.2852L274.848 22.957C274.965 23.793 275.289 24.4336 275.82 24.8789C276.359 25.3242 277.109 25.5469 278.07 25.5469C279.039 25.5469 279.758 25.3516 280.227 24.9609C280.695 24.5625 280.93 24.0977 280.93 23.5664C280.93 23.0898 280.723 22.7148 280.309 22.4414C280.02 22.2539 279.301 22.0156 278.152 21.7266C276.605 21.3359 275.531 21 274.93 20.7188C274.336 20.4297 273.883 20.0352 273.57 19.5352C273.266 19.0273 273.113 18.4688 273.113 17.8594C273.113 17.3047 273.238 16.793 273.488 16.3242C273.746 15.8477 274.094 15.4531 274.531 15.1406C274.859 14.8984 275.305 14.6953 275.867 14.5312C276.438 14.3594 277.047 14.2734 277.695 14.2734C278.672 14.2734 279.527 14.4141 280.262 14.6953C281.004 14.9766 281.551 15.3594 281.902 15.8438C282.254 16.3203 282.496 16.9609 282.629 17.7656L280.566 18.0469C280.473 17.4062 280.199 16.9062 279.746 16.5469C279.301 16.1875 278.668 16.0078 277.848 16.0078C276.879 16.0078 276.188 16.168 275.773 16.4883C275.359 16.8086 275.152 17.1836 275.152 17.6133C275.152 17.8867 275.238 18.1328 275.41 18.3516C275.582 18.5781 275.852 18.7656 276.219 18.9141C276.43 18.9922 277.051 19.1719 278.082 19.4531C279.574 19.8516 280.613 20.1797 281.199 20.4375C281.793 20.6875 282.258 21.0547 282.594 21.5391C282.93 22.0234 283.098 22.625 283.098 23.3438C283.098 24.0469 282.891 24.7109 282.477 25.3359C282.07 25.9531 281.48 26.4336 280.707 26.7773C279.934 27.1133 279.059 27.2812 278.082 27.2812C276.465 27.2812 275.23 26.9453 274.379 26.2734C273.535 25.6016 272.996 24.6055 272.762 23.2852ZM285.605 27V14.5547H287.492V16.3008C287.883 15.6914 288.402 15.2031 289.051 14.8359C289.699 14.4609 290.438 14.2734 291.266 14.2734C292.188 14.2734 292.941 14.4648 293.527 14.8477C294.121 15.2305 294.539 15.7656 294.781 16.4531C295.766 15 297.047 14.2734 298.625 14.2734C299.859 14.2734 300.809 14.6172 301.473 15.3047C302.137 15.9844 302.469 17.0352 302.469 18.457V27H300.371V19.1602C300.371 18.3164 300.301 17.7109 300.16 17.3438C300.027 16.9688 299.781 16.668 299.422 16.4414C299.062 16.2148 298.641 16.1016 298.156 16.1016C297.281 16.1016 296.555 16.3945 295.977 16.9805C295.398 17.5586 295.109 18.4883 295.109 19.7695V27H293V18.9141C293 17.9766 292.828 17.2734 292.484 16.8047C292.141 16.3359 291.578 16.1016 290.797 16.1016C290.203 16.1016 289.652 16.2578 289.145 16.5703C288.645 16.8828 288.281 17.3398 288.055 17.9414C287.828 18.543 287.715 19.4102 287.715 20.543V27H285.605ZM304.812 20.7773C304.812 18.4727 305.453 16.7656 306.734 15.6562C307.805 14.7344 309.109 14.2734 310.648 14.2734C312.359 14.2734 313.758 14.8359 314.844 15.9609C315.93 17.0781 316.473 18.625 316.473 20.6016C316.473 22.2031 316.23 23.4648 315.746 24.3867C315.27 25.3008 314.57 26.0117 313.648 26.5195C312.734 27.0273 311.734 27.2812 310.648 27.2812C308.906 27.2812 307.496 26.7227 306.418 25.6055C305.348 24.4883 304.812 22.8789 304.812 20.7773ZM306.98 20.7773C306.98 22.3711 307.328 23.5664 308.023 24.3633C308.719 25.1523 309.594 25.5469 310.648 25.5469C311.695 25.5469 312.566 25.1484 313.262 24.3516C313.957 23.5547 314.305 22.3398 314.305 20.707C314.305 19.168 313.953 18.0039 313.25 17.2148C312.555 16.418 311.688 16.0195 310.648 16.0195C309.594 16.0195 308.719 16.4141 308.023 17.2031C307.328 17.9922 306.98 19.1836 306.98 20.7773ZM327.031 27V25.4297C326.242 26.6641 325.082 27.2812 323.551 27.2812C322.559 27.2812 321.645 27.0078 320.809 26.4609C319.98 25.9141 319.336 25.1523 318.875 24.1758C318.422 23.1914 318.195 22.0625 318.195 20.7891C318.195 19.5469 318.402 18.4219 318.816 17.4141C319.23 16.3984 319.852 15.6211 320.68 15.082C321.508 14.543 322.434 14.2734 323.457 14.2734C324.207 14.2734 324.875 14.4336 325.461 14.7539C326.047 15.0664 326.523 15.4766 326.891 15.9844V9.82031H328.988V27H327.031ZM320.363 20.7891C320.363 22.3828 320.699 23.5742 321.371 24.3633C322.043 25.1523 322.836 25.5469 323.75 25.5469C324.672 25.5469 325.453 25.1719 326.094 24.4219C326.742 23.6641 327.066 22.5117 327.066 20.9648C327.066 19.2617 326.738 18.0117 326.082 17.2148C325.426 16.418 324.617 16.0195 323.656 16.0195C322.719 16.0195 321.934 16.4023 321.301 17.168C320.676 17.9336 320.363 19.1406 320.363 20.7891ZM343.602 25.1133L343.906 26.9766C343.312 27.1016 342.781 27.1641 342.312 27.1641C341.547 27.1641 340.953 27.043 340.531 26.8008C340.109 26.5586 339.812 26.2422 339.641 25.8516C339.469 25.4531 339.383 24.6211 339.383 23.3555V16.1953H337.836V14.5547H339.383V11.4727L341.48 10.207V14.5547H343.602V16.1953H341.48V23.4727C341.48 24.0742 341.516 24.4609 341.586 24.6328C341.664 24.8047 341.785 24.9414 341.949 25.043C342.121 25.1445 342.363 25.1953 342.676 25.1953C342.91 25.1953 343.219 25.168 343.602 25.1133ZM354.195 22.9922L356.375 23.2617C356.031 24.5352 355.395 25.5234 354.465 26.2266C353.535 26.9297 352.348 27.2812 350.902 27.2812C349.082 27.2812 347.637 26.7227 346.566 25.6055C345.504 24.4805 344.973 22.9062 344.973 20.8828C344.973 18.7891 345.512 17.1641 346.59 16.0078C347.668 14.8516 349.066 14.2734 350.785 14.2734C352.449 14.2734 353.809 14.8398 354.863 15.9727C355.918 17.1055 356.445 18.6992 356.445 20.7539C356.445 20.8789 356.441 21.0664 356.434 21.3164H347.152C347.23 22.6836 347.617 23.7305 348.312 24.457C349.008 25.1836 349.875 25.5469 350.914 25.5469C351.688 25.5469 352.348 25.3438 352.895 24.9375C353.441 24.5312 353.875 23.8828 354.195 22.9922ZM347.27 19.582H354.219C354.125 18.5352 353.859 17.75 353.422 17.2266C352.75 16.4141 351.879 16.0078 350.809 16.0078C349.84 16.0078 349.023 16.332 348.359 16.9805C347.703 17.6289 347.34 18.4961 347.27 19.582ZM359.035 27V14.5547H360.922V16.3008C361.312 15.6914 361.832 15.2031 362.48 14.8359C363.129 14.4609 363.867 14.2734 364.695 14.2734C365.617 14.2734 366.371 14.4648 366.957 14.8477C367.551 15.2305 367.969 15.7656 368.211 16.4531C369.195 15 370.477 14.2734 372.055 14.2734C373.289 14.2734 374.238 14.6172 374.902 15.3047C375.566 15.9844 375.898 17.0352 375.898 18.457V27H373.801V19.1602C373.801 18.3164 373.73 17.7109 373.59 17.3438C373.457 16.9688 373.211 16.668 372.852 16.4414C372.492 16.2148 372.07 16.1016 371.586 16.1016C370.711 16.1016 369.984 16.3945 369.406 16.9805C368.828 17.5586 368.539 18.4883 368.539 19.7695V27H366.43V18.9141C366.43 17.9766 366.258 17.2734 365.914 16.8047C365.57 16.3359 365.008 16.1016 364.227 16.1016C363.633 16.1016 363.082 16.2578 362.574 16.5703C362.074 16.8828 361.711 17.3398 361.484 17.9414C361.258 18.543 361.145 19.4102 361.145 20.543V27H359.035ZM379.027 31.7695V14.5547H380.949V16.1719C381.402 15.5391 381.914 15.0664 382.484 14.7539C383.055 14.4336 383.746 14.2734 384.559 14.2734C385.621 14.2734 386.559 14.5469 387.371 15.0938C388.184 15.6406 388.797 16.4141 389.211 17.4141C389.625 18.4062 389.832 19.4961 389.832 20.6836C389.832 21.957 389.602 23.1055 389.141 24.1289C388.688 25.1445 388.023 25.9258 387.148 26.4727C386.281 27.0117 385.367 27.2812 384.406 27.2812C383.703 27.2812 383.07 27.1328 382.508 26.8359C381.953 26.5391 381.496 26.1641 381.137 25.7109V31.7695H379.027ZM380.938 20.8477C380.938 22.4492 381.262 23.6328 381.91 24.3984C382.559 25.1641 383.344 25.5469 384.266 25.5469C385.203 25.5469 386.004 25.1523 386.668 24.3633C387.34 23.5664 387.676 22.3359 387.676 20.6719C387.676 19.0859 387.348 17.8984 386.691 17.1094C386.043 16.3203 385.266 15.9258 384.359 15.9258C383.461 15.9258 382.664 16.3477 381.969 17.1914C381.281 18.0273 380.938 19.2461 380.938 20.8477ZM391.602 20.7773C391.602 18.4727 392.242 16.7656 393.523 15.6562C394.594 14.7344 395.898 14.2734 397.438 14.2734C399.148 14.2734 400.547 14.8359 401.633 15.9609C402.719 17.0781 403.262 18.625 403.262 20.6016C403.262 22.2031 403.02 23.4648 402.535 24.3867C402.059 25.3008 401.359 26.0117 400.438 26.5195C399.523 27.0273 398.523 27.2812 397.438 27.2812C395.695 27.2812 394.285 26.7227 393.207 25.6055C392.137 24.4883 391.602 22.8789 391.602 20.7773ZM393.77 20.7773C393.77 22.3711 394.117 23.5664 394.812 24.3633C395.508 25.1523 396.383 25.5469 397.438 25.5469C398.484 25.5469 399.355 25.1484 400.051 24.3516C400.746 23.5547 401.094 22.3398 401.094 20.707C401.094 19.168 400.742 18.0039 400.039 17.2148C399.344 16.418 398.477 16.0195 397.438 16.0195C396.383 16.0195 395.508 16.4141 394.812 17.2031C394.117 17.9922 393.77 19.1836 393.77 20.7773ZM405.723 27V14.5547H407.621V16.4414C408.105 15.5586 408.551 14.9766 408.957 14.6953C409.371 14.4141 409.824 14.2734 410.316 14.2734C411.027 14.2734 411.75 14.5 412.484 14.9531L411.758 16.9102C411.242 16.6055 410.727 16.4531 410.211 16.4531C409.75 16.4531 409.336 16.5938 408.969 16.875C408.602 17.1484 408.34 17.5312 408.184 18.0234C407.949 18.7734 407.832 19.5938 407.832 20.4844V27H405.723Z" fill="white"/>
<defs>
<clipPath id="clip0_65_591">
<rect width="39" height="37" fill="white"/>
</clipPath>
</defs>
</svg>
