<svg width="458" height="41" viewBox="0 0 458 41" fill="none" xmlns="http://www.w3.org/2000/svg">
<rect y="2" width="458" height="37" rx="4" fill="#282829" fill-opacity="0.7"/>
<g clip-path="url(#clip0_65_590)">
<path d="M18.5 3C28.165 3 36 10.835 36 20.5C36 30.165 28.165 38 18.5 38C8.83502 38 1 30.165 1 20.5C1 10.835 8.83502 3 18.5 3Z" stroke="#EFCFAD" stroke-width="2"/>
<path d="M36.093 14.7722C35.569 13.1616 34.832 11.6483 33.9125 10.2656L17.7188 27.1324L17.7513 29.0095L18.5157 29.0046L36.093 14.7722Z" fill="#A4907D"/>
<path d="M39 8C38.7631 6.77238 36.5 6.0001 36.5 6.0001C36.0497 5.55499 33.4503 8.05569 33 8.5008L18.073 24.0005L11.5 16.5005C11.049 16.0554 9.95066 15.5554 9.5 16.0005L7.36115 17.4298C6.91087 17.8745 6.91087 18.596 7.36115 19.0408L17.1214 28.6834C17.3815 28.9405 17.7341 29.0441 18.073 29.0041C18.4119 29.0437 18.7646 28.9405 19.0247 28.6834L37.0296 10.8945C37.4799 10.4494 39.2591 9.34266 39 8Z" fill="white"/>
<path d="M19.0243 28.682L37.0292 10.8931C38.5 9.99972 39.4503 8.44483 39 7.99972C38.5497 7.55461 36.4909 8.74972 36.4909 8.74972L17.9698 26.9667L7.76964 17.024L7.36116 17.4281C6.91087 17.8728 6.91087 18.5943 7.36116 19.0391L17.121 28.682C17.3811 28.9391 17.7337 29.0427 18.0727 29.0028C18.4116 29.0427 18.7642 28.9395 19.0243 28.682Z" fill="#EFCFAD"/>
</g>
<path d="M65.7969 29V27.4297C65.0078 28.6641 63.8477 29.2812 62.3164 29.2812C61.3242 29.2812 60.4102 29.0078 59.5742 28.4609C58.7461 27.9141 58.1016 27.1523 57.6406 26.1758C57.1875 25.1914 56.9609 24.0625 56.9609 22.7891C56.9609 21.5469 57.168 20.4219 57.582 19.4141C57.9961 18.3984 58.6172 17.6211 59.4453 17.082C60.2734 16.543 61.1992 16.2734 62.2227 16.2734C62.9727 16.2734 63.6406 16.4336 64.2266 16.7539C64.8125 17.0664 65.2891 17.4766 65.6562 17.9844V11.8203H67.7539V29H65.7969ZM59.1289 22.7891C59.1289 24.3828 59.4648 25.5742 60.1367 26.3633C60.8086 27.1523 61.6016 27.5469 62.5156 27.5469C63.4375 27.5469 64.2188 27.1719 64.8594 26.4219C65.5078 25.6641 65.832 24.5117 65.832 22.9648C65.832 21.2617 65.5039 20.0117 64.8477 19.2148C64.1914 18.418 63.3828 18.0195 62.4219 18.0195C61.4844 18.0195 60.6992 18.4023 60.0664 19.168C59.4414 19.9336 59.1289 21.1406 59.1289 22.7891ZM70.2969 22.7773C70.2969 20.4727 70.9375 18.7656 72.2188 17.6562C73.2891 16.7344 74.5938 16.2734 76.1328 16.2734C77.8438 16.2734 79.2422 16.8359 80.3281 17.9609C81.4141 19.0781 81.957 20.625 81.957 22.6016C81.957 24.2031 81.7148 25.4648 81.2305 26.3867C80.7539 27.3008 80.0547 28.0117 79.1328 28.5195C78.2188 29.0273 77.2188 29.2812 76.1328 29.2812C74.3906 29.2812 72.9805 28.7227 71.9023 27.6055C70.832 26.4883 70.2969 24.8789 70.2969 22.7773ZM72.4648 22.7773C72.4648 24.3711 72.8125 25.5664 73.5078 26.3633C74.2031 27.1523 75.0781 27.5469 76.1328 27.5469C77.1797 27.5469 78.0508 27.1484 78.7461 26.3516C79.4414 25.5547 79.7891 24.3398 79.7891 22.707C79.7891 21.168 79.4375 20.0039 78.7344 19.2148C78.0391 18.418 77.1719 18.0195 76.1328 18.0195C75.0781 18.0195 74.2031 18.4141 73.5078 19.2031C72.8125 19.9922 72.4648 21.1836 72.4648 22.7773Z" fill="white"/>
<path d="M114.611 27.82C114.611 30.5133 113.851 32.6867 112.331 34.34C110.811 35.9667 108.744 36.9267 106.131 37.22V40.66H105.131V37.3H104.531C103.731 37.3 102.931 37.22 102.131 37.06V40.66H101.131V36.82C99.7974 36.4733 98.4908 35.9267 97.2108 35.18L93.8108 36.9H92.9308V26.62H93.8108L97.2508 34.06C98.3708 34.8867 99.6641 35.5133 101.131 35.94V21.78L100.051 21.5C97.7308 20.8867 95.9841 19.8467 94.8108 18.38C93.6374 16.8867 93.0508 15.1267 93.0508 13.1C93.0508 10.5133 93.7574 8.38 95.1708 6.7C96.6108 5.02 98.5974 4.04667 101.131 3.78V0.659999H102.131V3.7H102.411C103.477 3.7 104.384 3.76666 105.131 3.9V0.659999H106.131V4.06C107.117 4.27333 108.051 4.56667 108.931 4.94L111.851 3.7H112.731V11.86H111.851L108.971 6.02C107.957 5.54 107.011 5.20667 106.131 5.02V17.86L107.731 18.3C110.051 18.8867 111.771 19.9 112.891 21.34C114.037 22.7533 114.611 24.9133 114.611 27.82ZM102.131 4.58V16.82L105.131 17.62V4.82C104.251 4.66 103.357 4.58 102.451 4.58H102.131ZM101.131 16.58V4.66C99.1841 4.87333 97.6641 5.56667 96.5708 6.74C95.5041 7.88667 94.9708 9.32667 94.9708 11.06C94.9708 12.5 95.4374 13.6333 96.3708 14.46C97.3308 15.2867 98.7308 15.94 100.571 16.42L101.131 16.58ZM105.131 36.42V22.82L102.131 22.02V36.18C103.011 36.34 103.917 36.42 104.851 36.42H105.131ZM106.131 36.34C108.157 36.1267 109.797 35.42 111.051 34.22C112.331 32.9933 112.971 31.3667 112.971 29.34C112.971 27.7133 112.477 26.4333 111.491 25.5C110.504 24.54 108.904 23.78 106.691 23.22L106.131 23.06V36.34ZM120.184 36.5V35.7L122.984 35.3V5.7L120.184 5.3V4.5H126.984V35.3L129.784 35.7V36.5H120.184ZM147.293 37.3C144.973 37.3 142.946 36.6733 141.213 35.42C139.479 34.1667 138.133 32.2867 137.173 29.78C136.213 27.2467 135.733 24.1533 135.733 20.5C135.733 16.8467 136.213 13.7667 137.173 11.26C138.133 8.72667 139.479 6.83333 141.213 5.58C142.946 4.32666 144.973 3.7 147.293 3.7C149.613 3.7 151.639 4.32666 153.373 5.58C155.106 6.83333 156.453 8.72667 157.413 11.26C158.373 13.7667 158.853 16.8467 158.853 20.5C158.853 24.1533 158.373 27.2467 157.413 29.78C156.453 32.2867 155.106 34.1667 153.373 35.42C151.639 36.6733 149.613 37.3 147.293 37.3ZM147.293 36.38C149.293 36.38 150.866 35.4067 152.013 33.46C153.159 31.5133 153.733 28.4733 153.733 24.34V16.62C153.733 12.5133 153.159 9.48667 152.013 7.54C150.866 5.59333 149.293 4.62 147.293 4.62C145.293 4.62 143.719 5.59333 142.573 7.54C141.426 9.48667 140.853 12.5133 140.853 16.62V24.34C140.853 28.4467 141.426 31.4867 142.573 33.46C143.719 35.4067 145.293 36.38 147.293 36.38ZM187.915 37.3C185.595 37.3 183.568 36.6733 181.835 35.42C180.101 34.1667 178.755 32.2867 177.795 29.78C176.835 27.2467 176.355 24.1533 176.355 20.5C176.355 16.8467 176.835 13.7667 177.795 11.26C178.755 8.72667 180.101 6.83333 181.835 5.58C183.568 4.32666 185.595 3.7 187.915 3.7C190.235 3.7 192.261 4.32666 193.995 5.58C195.728 6.83333 197.075 8.72667 198.035 11.26C198.995 13.7667 199.475 16.8467 199.475 20.5C199.475 24.1533 198.995 27.2467 198.035 29.78C197.075 32.2867 195.728 34.1667 193.995 35.42C192.261 36.6733 190.235 37.3 187.915 37.3ZM187.915 36.38C189.915 36.38 191.488 35.4067 192.635 33.46C193.781 31.5133 194.355 28.4733 194.355 24.34V16.62C194.355 12.5133 193.781 9.48667 192.635 7.54C191.488 5.59333 189.915 4.62 187.915 4.62C185.915 4.62 184.341 5.59333 183.195 7.54C182.048 9.48667 181.475 12.5133 181.475 16.62V24.34C181.475 28.4467 182.048 31.4867 183.195 33.46C184.341 35.4067 185.915 36.38 187.915 36.38ZM217.366 37.3C215.046 37.3 213.019 36.6733 211.286 35.42C209.553 34.1667 208.206 32.2867 207.246 29.78C206.286 27.2467 205.806 24.1533 205.806 20.5C205.806 16.8467 206.286 13.7667 207.246 11.26C208.206 8.72667 209.553 6.83333 211.286 5.58C213.019 4.32666 215.046 3.7 217.366 3.7C219.686 3.7 221.713 4.32666 223.446 5.58C225.179 6.83333 226.526 8.72667 227.486 11.26C228.446 13.7667 228.926 16.8467 228.926 20.5C228.926 24.1533 228.446 27.2467 227.486 29.78C226.526 32.2867 225.179 34.1667 223.446 35.42C221.713 36.6733 219.686 37.3 217.366 37.3ZM217.366 36.38C219.366 36.38 220.939 35.4067 222.086 33.46C223.233 31.5133 223.806 28.4733 223.806 24.34V16.62C223.806 12.5133 223.233 9.48667 222.086 7.54C220.939 5.59333 219.366 4.62 217.366 4.62C215.366 4.62 213.793 5.59333 212.646 7.54C211.499 9.48667 210.926 12.5133 210.926 16.62V24.34C210.926 28.4467 211.499 31.4867 212.646 33.46C213.793 35.4067 215.366 36.38 217.366 36.38ZM246.818 37.3C244.498 37.3 242.471 36.6733 240.738 35.42C239.004 34.1667 237.658 32.2867 236.698 29.78C235.738 27.2467 235.258 24.1533 235.258 20.5C235.258 16.8467 235.738 13.7667 236.698 11.26C237.658 8.72667 239.004 6.83333 240.738 5.58C242.471 4.32666 244.498 3.7 246.818 3.7C249.138 3.7 251.164 4.32666 252.898 5.58C254.631 6.83333 255.978 8.72667 256.938 11.26C257.898 13.7667 258.378 16.8467 258.378 20.5C258.378 24.1533 257.898 27.2467 256.938 29.78C255.978 32.2867 254.631 34.1667 252.898 35.42C251.164 36.6733 249.138 37.3 246.818 37.3ZM246.818 36.38C248.818 36.38 250.391 35.4067 251.538 33.46C252.684 31.5133 253.258 28.4733 253.258 24.34V16.62C253.258 12.5133 252.684 9.48667 251.538 7.54C250.391 5.59333 248.818 4.62 246.818 4.62C244.818 4.62 243.244 5.59333 242.098 7.54C240.951 9.48667 240.378 12.5133 240.378 16.62V24.34C240.378 28.4467 240.951 31.4867 242.098 33.46C243.244 35.4067 244.818 36.38 246.818 36.38Z" fill="white"/>
<path d="M285.926 24.4414L288 24.7109C287.773 26.1406 287.191 27.2617 286.254 28.0742C285.324 28.8789 284.18 29.2812 282.82 29.2812C281.117 29.2812 279.746 28.7266 278.707 27.6172C277.676 26.5 277.16 24.9023 277.16 22.8242C277.16 21.4805 277.383 20.3047 277.828 19.2969C278.273 18.2891 278.949 17.5352 279.855 17.0352C280.77 16.5273 281.762 16.2734 282.832 16.2734C284.184 16.2734 285.289 16.6172 286.148 17.3047C287.008 17.9844 287.559 18.9531 287.801 20.2109L285.75 20.5273C285.555 19.6914 285.207 19.0625 284.707 18.6406C284.215 18.2188 283.617 18.0078 282.914 18.0078C281.852 18.0078 280.988 18.3906 280.324 19.1562C279.66 19.9141 279.328 21.1172 279.328 22.7656C279.328 24.4375 279.648 25.6523 280.289 26.4102C280.93 27.168 281.766 27.5469 282.797 27.5469C283.625 27.5469 284.316 27.293 284.871 26.7852C285.426 26.2773 285.777 25.4961 285.926 24.4414ZM289.02 22.7773C289.02 20.4727 289.66 18.7656 290.941 17.6562C292.012 16.7344 293.316 16.2734 294.855 16.2734C296.566 16.2734 297.965 16.8359 299.051 17.9609C300.137 19.0781 300.68 20.625 300.68 22.6016C300.68 24.2031 300.438 25.4648 299.953 26.3867C299.477 27.3008 298.777 28.0117 297.855 28.5195C296.941 29.0273 295.941 29.2812 294.855 29.2812C293.113 29.2812 291.703 28.7227 290.625 27.6055C289.555 26.4883 289.02 24.8789 289.02 22.7773ZM291.188 22.7773C291.188 24.3711 291.535 25.5664 292.23 26.3633C292.926 27.1523 293.801 27.5469 294.855 27.5469C295.902 27.5469 296.773 27.1484 297.469 26.3516C298.164 25.5547 298.512 24.3398 298.512 22.707C298.512 21.168 298.16 20.0039 297.457 19.2148C296.762 18.418 295.895 18.0195 294.855 18.0195C293.801 18.0195 292.926 18.4141 292.23 19.2031C291.535 19.9922 291.188 21.1836 291.188 22.7773ZM303.164 29V16.5547H305.062V18.3242C305.977 16.957 307.297 16.2734 309.023 16.2734C309.773 16.2734 310.461 16.4102 311.086 16.6836C311.719 16.9492 312.191 17.3008 312.504 17.7383C312.816 18.1758 313.035 18.6953 313.16 19.2969C313.238 19.6875 313.277 20.3711 313.277 21.3477V29H311.168V21.4297C311.168 20.5703 311.086 19.9297 310.922 19.5078C310.758 19.0781 310.465 18.7383 310.043 18.4883C309.629 18.2305 309.141 18.1016 308.578 18.1016C307.68 18.1016 306.902 18.3867 306.246 18.957C305.598 19.5273 305.273 20.6094 305.273 22.2031V29H303.164ZM315.68 25.2852L317.766 24.957C317.883 25.793 318.207 26.4336 318.738 26.8789C319.277 27.3242 320.027 27.5469 320.988 27.5469C321.957 27.5469 322.676 27.3516 323.145 26.9609C323.613 26.5625 323.848 26.0977 323.848 25.5664C323.848 25.0898 323.641 24.7148 323.227 24.4414C322.938 24.2539 322.219 24.0156 321.07 23.7266C319.523 23.3359 318.449 23 317.848 22.7188C317.254 22.4297 316.801 22.0352 316.488 21.5352C316.184 21.0273 316.031 20.4688 316.031 19.8594C316.031 19.3047 316.156 18.793 316.406 18.3242C316.664 17.8477 317.012 17.4531 317.449 17.1406C317.777 16.8984 318.223 16.6953 318.785 16.5312C319.355 16.3594 319.965 16.2734 320.613 16.2734C321.59 16.2734 322.445 16.4141 323.18 16.6953C323.922 16.9766 324.469 17.3594 324.82 17.8438C325.172 18.3203 325.414 18.9609 325.547 19.7656L323.484 20.0469C323.391 19.4062 323.117 18.9062 322.664 18.5469C322.219 18.1875 321.586 18.0078 320.766 18.0078C319.797 18.0078 319.105 18.168 318.691 18.4883C318.277 18.8086 318.07 19.1836 318.07 19.6133C318.07 19.8867 318.156 20.1328 318.328 20.3516C318.5 20.5781 318.77 20.7656 319.137 20.9141C319.348 20.9922 319.969 21.1719 321 21.4531C322.492 21.8516 323.531 22.1797 324.117 22.4375C324.711 22.6875 325.176 23.0547 325.512 23.5391C325.848 24.0234 326.016 24.625 326.016 25.3438C326.016 26.0469 325.809 26.7109 325.395 27.3359C324.988 27.9531 324.398 28.4336 323.625 28.7773C322.852 29.1133 321.977 29.2812 321 29.2812C319.383 29.2812 318.148 28.9453 317.297 28.2734C316.453 27.6016 315.914 26.6055 315.68 25.2852ZM337.043 24.9922L339.223 25.2617C338.879 26.5352 338.242 27.5234 337.312 28.2266C336.383 28.9297 335.195 29.2812 333.75 29.2812C331.93 29.2812 330.484 28.7227 329.414 27.6055C328.352 26.4805 327.82 24.9062 327.82 22.8828C327.82 20.7891 328.359 19.1641 329.438 18.0078C330.516 16.8516 331.914 16.2734 333.633 16.2734C335.297 16.2734 336.656 16.8398 337.711 17.9727C338.766 19.1055 339.293 20.6992 339.293 22.7539C339.293 22.8789 339.289 23.0664 339.281 23.3164H330C330.078 24.6836 330.465 25.7305 331.16 26.457C331.855 27.1836 332.723 27.5469 333.762 27.5469C334.535 27.5469 335.195 27.3438 335.742 26.9375C336.289 26.5312 336.723 25.8828 337.043 24.9922ZM330.117 21.582H337.066C336.973 20.5352 336.707 19.75 336.27 19.2266C335.598 18.4141 334.727 18.0078 333.656 18.0078C332.688 18.0078 331.871 18.332 331.207 18.9805C330.551 19.6289 330.188 20.4961 330.117 21.582ZM350.004 24.4414L352.078 24.7109C351.852 26.1406 351.27 27.2617 350.332 28.0742C349.402 28.8789 348.258 29.2812 346.898 29.2812C345.195 29.2812 343.824 28.7266 342.785 27.6172C341.754 26.5 341.238 24.9023 341.238 22.8242C341.238 21.4805 341.461 20.3047 341.906 19.2969C342.352 18.2891 343.027 17.5352 343.934 17.0352C344.848 16.5273 345.84 16.2734 346.91 16.2734C348.262 16.2734 349.367 16.6172 350.227 17.3047C351.086 17.9844 351.637 18.9531 351.879 20.2109L349.828 20.5273C349.633 19.6914 349.285 19.0625 348.785 18.6406C348.293 18.2188 347.695 18.0078 346.992 18.0078C345.93 18.0078 345.066 18.3906 344.402 19.1562C343.738 19.9141 343.406 21.1172 343.406 22.7656C343.406 24.4375 343.727 25.6523 344.367 26.4102C345.008 27.168 345.844 27.5469 346.875 27.5469C347.703 27.5469 348.395 27.293 348.949 26.7852C349.504 26.2773 349.855 25.4961 350.004 24.4414ZM358.488 27.1133L358.793 28.9766C358.199 29.1016 357.668 29.1641 357.199 29.1641C356.434 29.1641 355.84 29.043 355.418 28.8008C354.996 28.5586 354.699 28.2422 354.527 27.8516C354.355 27.4531 354.27 26.6211 354.27 25.3555V18.1953H352.723V16.5547H354.27V13.4727L356.367 12.207V16.5547H358.488V18.1953H356.367V25.4727C356.367 26.0742 356.402 26.4609 356.473 26.6328C356.551 26.8047 356.672 26.9414 356.836 27.043C357.008 27.1445 357.25 27.1953 357.562 27.1953C357.797 27.1953 358.105 27.168 358.488 27.1133ZM369.082 24.9922L371.262 25.2617C370.918 26.5352 370.281 27.5234 369.352 28.2266C368.422 28.9297 367.234 29.2812 365.789 29.2812C363.969 29.2812 362.523 28.7227 361.453 27.6055C360.391 26.4805 359.859 24.9062 359.859 22.8828C359.859 20.7891 360.398 19.1641 361.477 18.0078C362.555 16.8516 363.953 16.2734 365.672 16.2734C367.336 16.2734 368.695 16.8398 369.75 17.9727C370.805 19.1055 371.332 20.6992 371.332 22.7539C371.332 22.8789 371.328 23.0664 371.32 23.3164H362.039C362.117 24.6836 362.504 25.7305 363.199 26.457C363.895 27.1836 364.762 27.5469 365.801 27.5469C366.574 27.5469 367.234 27.3438 367.781 26.9375C368.328 26.5312 368.762 25.8828 369.082 24.9922ZM362.156 21.582H369.105C369.012 20.5352 368.746 19.75 368.309 19.2266C367.637 18.4141 366.766 18.0078 365.695 18.0078C364.727 18.0078 363.91 18.332 363.246 18.9805C362.59 19.6289 362.227 20.4961 362.156 21.582ZM378.527 27.1133L378.832 28.9766C378.238 29.1016 377.707 29.1641 377.238 29.1641C376.473 29.1641 375.879 29.043 375.457 28.8008C375.035 28.5586 374.738 28.2422 374.566 27.8516C374.395 27.4531 374.309 26.6211 374.309 25.3555V18.1953H372.762V16.5547H374.309V13.4727L376.406 12.207V16.5547H378.527V18.1953H376.406V25.4727C376.406 26.0742 376.441 26.4609 376.512 26.6328C376.59 26.8047 376.711 26.9414 376.875 27.043C377.047 27.1445 377.289 27.1953 377.602 27.1953C377.836 27.1953 378.145 27.168 378.527 27.1133ZM388.758 29V27.1719C387.789 28.5781 386.473 29.2812 384.809 29.2812C384.074 29.2812 383.387 29.1406 382.746 28.8594C382.113 28.5781 381.641 28.2266 381.328 27.8047C381.023 27.375 380.809 26.8516 380.684 26.2344C380.598 25.8203 380.555 25.1641 380.555 24.2656V16.5547H382.664V23.457C382.664 24.5586 382.707 25.3008 382.793 25.6836C382.926 26.2383 383.207 26.6758 383.637 26.9961C384.066 27.3086 384.598 27.4648 385.23 27.4648C385.863 27.4648 386.457 27.3047 387.012 26.9844C387.566 26.6562 387.957 26.2148 388.184 25.6602C388.418 25.0977 388.535 24.2852 388.535 23.2227V16.5547H390.645V29H388.758ZM393.938 29V16.5547H395.836V18.4414C396.32 17.5586 396.766 16.9766 397.172 16.6953C397.586 16.4141 398.039 16.2734 398.531 16.2734C399.242 16.2734 399.965 16.5 400.699 16.9531L399.973 18.9102C399.457 18.6055 398.941 18.4531 398.426 18.4531C397.965 18.4531 397.551 18.5938 397.184 18.875C396.816 19.1484 396.555 19.5312 396.398 20.0234C396.164 20.7734 396.047 21.5938 396.047 22.4844V29H393.938ZM417.152 24.9922L419.332 25.2617C418.988 26.5352 418.352 27.5234 417.422 28.2266C416.492 28.9297 415.305 29.2812 413.859 29.2812C412.039 29.2812 410.594 28.7227 409.523 27.6055C408.461 26.4805 407.93 24.9062 407.93 22.8828C407.93 20.7891 408.469 19.1641 409.547 18.0078C410.625 16.8516 412.023 16.2734 413.742 16.2734C415.406 16.2734 416.766 16.8398 417.82 17.9727C418.875 19.1055 419.402 20.6992 419.402 22.7539C419.402 22.8789 419.398 23.0664 419.391 23.3164H410.109C410.188 24.6836 410.574 25.7305 411.27 26.457C411.965 27.1836 412.832 27.5469 413.871 27.5469C414.645 27.5469 415.305 27.3438 415.852 26.9375C416.398 26.5312 416.832 25.8828 417.152 24.9922ZM410.227 21.582H417.176C417.082 20.5352 416.816 19.75 416.379 19.2266C415.707 18.4141 414.836 18.0078 413.766 18.0078C412.797 18.0078 411.98 18.332 411.316 18.9805C410.66 19.6289 410.297 20.4961 410.227 21.582ZM421.945 29V11.8203H424.055V29H421.945ZM427.348 14.2461V11.8203H429.457V14.2461H427.348ZM427.348 29V16.5547H429.457V29H427.348ZM437.285 27.1133L437.59 28.9766C436.996 29.1016 436.465 29.1641 435.996 29.1641C435.23 29.1641 434.637 29.043 434.215 28.8008C433.793 28.5586 433.496 28.2422 433.324 27.8516C433.152 27.4531 433.066 26.6211 433.066 25.3555V18.1953H431.52V16.5547H433.066V13.4727L435.164 12.207V16.5547H437.285V18.1953H435.164V25.4727C435.164 26.0742 435.199 26.4609 435.27 26.6328C435.348 26.8047 435.469 26.9414 435.633 27.043C435.805 27.1445 436.047 27.1953 436.359 27.1953C436.594 27.1953 436.902 27.168 437.285 27.1133Z" fill="white"/>
<defs>
<clipPath id="clip0_65_590">
<rect width="39" height="37" fill="white" transform="translate(0 2)"/>
</clipPath>
</defs>
</svg>
