<svg width="420" height="37" viewBox="0 0 420 37" fill="none" xmlns="http://www.w3.org/2000/svg">
<rect width="420" height="37" rx="4" fill="#282829" fill-opacity="0.7"/>
<g clip-path="url(#clip0_65_592)">
<path d="M18.5 1C28.165 1 36 8.83502 36 18.5C36 28.165 28.165 36 18.5 36C8.83502 36 1 28.165 1 18.5C1 8.83502 8.83502 1 18.5 1Z" stroke="#EFCFAD" stroke-width="2"/>
<path d="M36.093 12.7722C35.569 11.1616 34.832 9.64832 33.9125 8.26562L17.7188 25.1324L17.7513 27.0095L18.5157 27.0046L36.093 12.7722Z" fill="#A4907D"/>
<path d="M39 6C38.7631 4.77238 36.5 4.0001 36.5 4.0001C36.0497 3.55499 33.4503 6.05569 33 6.5008L18.073 22.0005L11.5 14.5005C11.049 14.0554 9.95066 13.5554 9.5 14.0005L7.36115 15.4298C6.91087 15.8745 6.91087 16.596 7.36115 17.0408L17.1214 26.6834C17.3815 26.9405 17.7341 27.0441 18.073 27.0041C18.4119 27.0437 18.7646 26.9405 19.0247 26.6834L37.0296 8.89449C37.4799 8.44938 39.2591 7.34266 39 6Z" fill="white"/>
<path d="M19.0243 26.682L37.0292 8.89313C38.5 7.99972 39.4503 6.44483 39 5.99972C38.5497 5.55461 36.4909 6.74972 36.4909 6.74972L17.9698 24.9667L7.76964 15.024L7.36116 15.4281C6.91087 15.8728 6.91087 16.5943 7.36116 17.0391L17.121 26.682C17.3811 26.9391 17.7337 27.0427 18.0727 27.0028C18.4116 27.0427 18.7642 26.9395 19.0243 26.682Z" fill="#EFCFAD"/>
</g>
<path d="M65.7969 27V25.4297C65.0078 26.6641 63.8477 27.2812 62.3164 27.2812C61.3242 27.2812 60.4102 27.0078 59.5742 26.4609C58.7461 25.9141 58.1016 25.1523 57.6406 24.1758C57.1875 23.1914 56.9609 22.0625 56.9609 20.7891C56.9609 19.5469 57.168 18.4219 57.582 17.4141C57.9961 16.3984 58.6172 15.6211 59.4453 15.082C60.2734 14.543 61.1992 14.2734 62.2227 14.2734C62.9727 14.2734 63.6406 14.4336 64.2266 14.7539C64.8125 15.0664 65.2891 15.4766 65.6562 15.9844V9.82031H67.7539V27H65.7969ZM59.1289 20.7891C59.1289 22.3828 59.4648 23.5742 60.1367 24.3633C60.8086 25.1523 61.6016 25.5469 62.5156 25.5469C63.4375 25.5469 64.2188 25.1719 64.8594 24.4219C65.5078 23.6641 65.832 22.5117 65.832 20.9648C65.832 19.2617 65.5039 18.0117 64.8477 17.2148C64.1914 16.418 63.3828 16.0195 62.4219 16.0195C61.4844 16.0195 60.6992 16.4023 60.0664 17.168C59.4414 17.9336 59.1289 19.1406 59.1289 20.7891ZM70.2969 20.7773C70.2969 18.4727 70.9375 16.7656 72.2188 15.6562C73.2891 14.7344 74.5938 14.2734 76.1328 14.2734C77.8438 14.2734 79.2422 14.8359 80.3281 15.9609C81.4141 17.0781 81.957 18.625 81.957 20.6016C81.957 22.2031 81.7148 23.4648 81.2305 24.3867C80.7539 25.3008 80.0547 26.0117 79.1328 26.5195C78.2188 27.0273 77.2188 27.2812 76.1328 27.2812C74.3906 27.2812 72.9805 26.7227 71.9023 25.6055C70.832 24.4883 70.2969 22.8789 70.2969 20.7773ZM72.4648 20.7773C72.4648 22.3711 72.8125 23.5664 73.5078 24.3633C74.2031 25.1523 75.0781 25.5469 76.1328 25.5469C77.1797 25.5469 78.0508 25.1484 78.7461 24.3516C79.4414 23.5547 79.7891 22.3398 79.7891 20.707C79.7891 19.168 79.4375 18.0039 78.7344 17.2148C78.0391 16.418 77.1719 16.0195 76.1328 16.0195C75.0781 16.0195 74.2031 16.4141 73.5078 17.2031C72.8125 17.9922 72.4648 19.1836 72.4648 20.7773Z" fill="white"/>
<path d="M92.6234 34.5V33.7L95.4234 33.3V3.7L92.6234 3.3V2.5H99.4234V33.3L102.223 33.7V34.5H92.6234ZM111.453 34.5C111.639 32.5267 112.013 30.66 112.573 28.9C113.159 27.14 113.813 25.54 114.533 24.1C115.279 22.66 116.253 20.8733 117.453 18.74C118.866 16.26 119.999 14.1533 120.853 12.42C121.706 10.66 122.426 8.74 123.013 6.66H109.613L108.533 11.42H107.493V2.5H125.053C124.733 5.24667 124.239 7.83333 123.573 10.26C122.906 12.66 121.999 15.5667 120.853 18.98C119.706 22.26 118.813 25.0467 118.173 27.34C117.559 29.6067 117.146 31.9933 116.933 34.5H111.453ZM135.253 19.7C133.359 19.7 131.826 18.9533 130.653 17.46C129.506 15.94 128.933 13.78 128.933 10.98C128.933 8.18 129.506 6.03333 130.653 4.54C131.826 3.04666 133.359 2.3 135.253 2.3C137.173 2.3 138.706 3.04666 139.853 4.54C141.026 6.03333 141.613 8.18 141.613 10.98C141.613 13.78 141.026 15.94 139.853 17.46C138.706 18.9533 137.173 19.7 135.253 19.7ZM134.973 34.5L150.973 2.5H153.013L137.053 34.5H134.973ZM135.253 18.82C136.319 18.82 137.119 18.3667 137.653 17.46C138.213 16.5533 138.493 15.0733 138.493 13.02V8.94C138.493 6.88667 138.213 5.40667 137.653 4.5C137.119 3.59333 136.319 3.14 135.253 3.14C134.213 3.14 133.413 3.59333 132.853 4.5C132.293 5.40667 132.013 6.88667 132.013 8.94V13.02C132.013 15.0733 132.293 16.5533 132.853 17.46C133.413 18.3667 134.213 18.82 135.253 18.82ZM152.733 34.7C150.813 34.7 149.266 33.9533 148.093 32.46C146.946 30.94 146.373 28.78 146.373 25.98C146.373 23.18 146.946 21.0333 148.093 19.54C149.266 18.0467 150.813 17.3 152.733 17.3C154.626 17.3 156.146 18.0467 157.293 19.54C158.466 21.0333 159.053 23.18 159.053 25.98C159.053 28.78 158.466 30.94 157.293 32.46C156.146 33.9533 154.626 34.7 152.733 34.7ZM152.733 33.82C153.773 33.82 154.573 33.3667 155.133 32.46C155.693 31.5533 155.973 30.0733 155.973 28.02V23.94C155.973 21.8867 155.693 20.4067 155.133 19.5C154.573 18.5933 153.773 18.14 152.733 18.14C151.666 18.14 150.853 18.5933 150.293 19.5C149.759 20.4067 149.493 21.8867 149.493 23.94V28.02C149.493 30.0733 149.759 31.5533 150.293 32.46C150.853 33.3667 151.666 33.82 152.733 33.82Z" fill="white"/>
<path d="M186.188 25.4648C185.406 26.1289 184.652 26.5977 183.926 26.8711C183.207 27.1445 182.434 27.2812 181.605 27.2812C180.238 27.2812 179.188 26.9492 178.453 26.2852C177.719 25.6133 177.352 24.7578 177.352 23.7188C177.352 23.1094 177.488 22.5547 177.762 22.0547C178.043 21.5469 178.406 21.1406 178.852 20.8359C179.305 20.5312 179.812 20.3008 180.375 20.1445C180.789 20.0352 181.414 19.9297 182.25 19.8281C183.953 19.625 185.207 19.3828 186.012 19.1016C186.02 18.8125 186.023 18.6289 186.023 18.5508C186.023 17.6914 185.824 17.0859 185.426 16.7344C184.887 16.2578 184.086 16.0195 183.023 16.0195C182.031 16.0195 181.297 16.1953 180.82 16.5469C180.352 16.8906 180.004 17.5039 179.777 18.3867L177.715 18.1055C177.902 17.2227 178.211 16.5117 178.641 15.9727C179.07 15.4258 179.691 15.0078 180.504 14.7188C181.316 14.4219 182.258 14.2734 183.328 14.2734C184.391 14.2734 185.254 14.3984 185.918 14.6484C186.582 14.8984 187.07 15.2148 187.383 15.5977C187.695 15.9727 187.914 16.4492 188.039 17.0273C188.109 17.3867 188.145 18.0352 188.145 18.9727V21.7852C188.145 23.7461 188.188 24.9883 188.273 25.5117C188.367 26.0273 188.547 26.5234 188.812 27H186.609C186.391 26.5625 186.25 26.0508 186.188 25.4648ZM186.012 20.7539C185.246 21.0664 184.098 21.332 182.566 21.5508C181.699 21.6758 181.086 21.8164 180.727 21.9727C180.367 22.1289 180.09 22.3594 179.895 22.6641C179.699 22.9609 179.602 23.293 179.602 23.6602C179.602 24.2227 179.812 24.6914 180.234 25.0664C180.664 25.4414 181.289 25.6289 182.109 25.6289C182.922 25.6289 183.645 25.4531 184.277 25.1016C184.91 24.7422 185.375 24.2539 185.672 23.6367C185.898 23.1602 186.012 22.457 186.012 21.5273V20.7539ZM199.5 27V25.4297C198.711 26.6641 197.551 27.2812 196.02 27.2812C195.027 27.2812 194.113 27.0078 193.277 26.4609C192.449 25.9141 191.805 25.1523 191.344 24.1758C190.891 23.1914 190.664 22.0625 190.664 20.7891C190.664 19.5469 190.871 18.4219 191.285 17.4141C191.699 16.3984 192.32 15.6211 193.148 15.082C193.977 14.543 194.902 14.2734 195.926 14.2734C196.676 14.2734 197.344 14.4336 197.93 14.7539C198.516 15.0664 198.992 15.4766 199.359 15.9844V9.82031H201.457V27H199.5ZM192.832 20.7891C192.832 22.3828 193.168 23.5742 193.84 24.3633C194.512 25.1523 195.305 25.5469 196.219 25.5469C197.141 25.5469 197.922 25.1719 198.562 24.4219C199.211 23.6641 199.535 22.5117 199.535 20.9648C199.535 19.2617 199.207 18.0117 198.551 17.2148C197.895 16.418 197.086 16.0195 196.125 16.0195C195.188 16.0195 194.402 16.4023 193.77 17.168C193.145 17.9336 192.832 19.1406 192.832 20.7891ZM204.797 12.2461V9.82031H206.906V12.2461H204.797ZM204.797 27V14.5547H206.906V27H204.797ZM210.129 31.7695V14.5547H212.051V16.1719C212.504 15.5391 213.016 15.0664 213.586 14.7539C214.156 14.4336 214.848 14.2734 215.66 14.2734C216.723 14.2734 217.66 14.5469 218.473 15.0938C219.285 15.6406 219.898 16.4141 220.312 17.4141C220.727 18.4062 220.934 19.4961 220.934 20.6836C220.934 21.957 220.703 23.1055 220.242 24.1289C219.789 25.1445 219.125 25.9258 218.25 26.4727C217.383 27.0117 216.469 27.2812 215.508 27.2812C214.805 27.2812 214.172 27.1328 213.609 26.8359C213.055 26.5391 212.598 26.1641 212.238 25.7109V31.7695H210.129ZM212.039 20.8477C212.039 22.4492 212.363 23.6328 213.012 24.3984C213.66 25.1641 214.445 25.5469 215.367 25.5469C216.305 25.5469 217.105 25.1523 217.77 24.3633C218.441 23.5664 218.777 22.3359 218.777 20.6719C218.777 19.0859 218.449 17.8984 217.793 17.1094C217.145 16.3203 216.367 15.9258 215.461 15.9258C214.562 15.9258 213.766 16.3477 213.07 17.1914C212.383 18.0273 212.039 19.2461 212.039 20.8477ZM223.5 12.2461V9.82031H225.609V12.2461H223.5ZM223.5 27V14.5547H225.609V27H223.5ZM227.988 23.2852L230.074 22.957C230.191 23.793 230.516 24.4336 231.047 24.8789C231.586 25.3242 232.336 25.5469 233.297 25.5469C234.266 25.5469 234.984 25.3516 235.453 24.9609C235.922 24.5625 236.156 24.0977 236.156 23.5664C236.156 23.0898 235.949 22.7148 235.535 22.4414C235.246 22.2539 234.527 22.0156 233.379 21.7266C231.832 21.3359 230.758 21 230.156 20.7188C229.562 20.4297 229.109 20.0352 228.797 19.5352C228.492 19.0273 228.34 18.4688 228.34 17.8594C228.34 17.3047 228.465 16.793 228.715 16.3242C228.973 15.8477 229.32 15.4531 229.758 15.1406C230.086 14.8984 230.531 14.6953 231.094 14.5312C231.664 14.3594 232.273 14.2734 232.922 14.2734C233.898 14.2734 234.754 14.4141 235.488 14.6953C236.23 14.9766 236.777 15.3594 237.129 15.8438C237.48 16.3203 237.723 16.9609 237.855 17.7656L235.793 18.0469C235.699 17.4062 235.426 16.9062 234.973 16.5469C234.527 16.1875 233.895 16.0078 233.074 16.0078C232.105 16.0078 231.414 16.168 231 16.4883C230.586 16.8086 230.379 17.1836 230.379 17.6133C230.379 17.8867 230.465 18.1328 230.637 18.3516C230.809 18.5781 231.078 18.7656 231.445 18.9141C231.656 18.9922 232.277 19.1719 233.309 19.4531C234.801 19.8516 235.84 20.1797 236.426 20.4375C237.02 20.6875 237.484 21.0547 237.82 21.5391C238.156 22.0234 238.324 22.625 238.324 23.3438C238.324 24.0469 238.117 24.7109 237.703 25.3359C237.297 25.9531 236.707 26.4336 235.934 26.7773C235.16 27.1133 234.285 27.2812 233.309 27.2812C231.691 27.2812 230.457 26.9453 229.605 26.2734C228.762 25.6016 228.223 24.6055 227.988 23.2852ZM248.953 22.4414L251.027 22.7109C250.801 24.1406 250.219 25.2617 249.281 26.0742C248.352 26.8789 247.207 27.2812 245.848 27.2812C244.145 27.2812 242.773 26.7266 241.734 25.6172C240.703 24.5 240.188 22.9023 240.188 20.8242C240.188 19.4805 240.41 18.3047 240.855 17.2969C241.301 16.2891 241.977 15.5352 242.883 15.0352C243.797 14.5273 244.789 14.2734 245.859 14.2734C247.211 14.2734 248.316 14.6172 249.176 15.3047C250.035 15.9844 250.586 16.9531 250.828 18.2109L248.777 18.5273C248.582 17.6914 248.234 17.0625 247.734 16.6406C247.242 16.2188 246.645 16.0078 245.941 16.0078C244.879 16.0078 244.016 16.3906 243.352 17.1562C242.688 17.9141 242.355 19.1172 242.355 20.7656C242.355 22.4375 242.676 23.6523 243.316 24.4102C243.957 25.168 244.793 25.5469 245.824 25.5469C246.652 25.5469 247.344 25.293 247.898 24.7852C248.453 24.2773 248.805 23.4961 248.953 22.4414ZM252.844 12.2461V9.82031H254.953V12.2461H252.844ZM252.844 27V14.5547H254.953V27H252.844ZM258.176 27V14.5547H260.074V16.3242C260.988 14.957 262.309 14.2734 264.035 14.2734C264.785 14.2734 265.473 14.4102 266.098 14.6836C266.73 14.9492 267.203 15.3008 267.516 15.7383C267.828 16.1758 268.047 16.6953 268.172 17.2969C268.25 17.6875 268.289 18.3711 268.289 19.3477V27H266.18V19.4297C266.18 18.5703 266.098 17.9297 265.934 17.5078C265.77 17.0781 265.477 16.7383 265.055 16.4883C264.641 16.2305 264.152 16.1016 263.59 16.1016C262.691 16.1016 261.914 16.3867 261.258 16.957C260.609 17.5273 260.285 18.6094 260.285 20.2031V27H258.176ZM271.148 28.0312L273.199 28.3359C273.285 28.9688 273.523 29.4297 273.914 29.7188C274.438 30.1094 275.152 30.3047 276.059 30.3047C277.035 30.3047 277.789 30.1094 278.32 29.7188C278.852 29.3281 279.211 28.7812 279.398 28.0781C279.508 27.6484 279.559 26.7461 279.551 25.3711C278.629 26.457 277.48 27 276.105 27C274.395 27 273.07 26.3828 272.133 25.1484C271.195 23.9141 270.727 22.4336 270.727 20.707C270.727 19.5195 270.941 18.4258 271.371 17.4258C271.801 16.418 272.422 15.6406 273.234 15.0938C274.055 14.5469 275.016 14.2734 276.117 14.2734C277.586 14.2734 278.797 14.8672 279.75 16.0547V14.5547H281.695V25.3125C281.695 27.25 281.496 28.6211 281.098 29.4258C280.707 30.2383 280.082 30.8789 279.223 31.3477C278.371 31.8164 277.32 32.0508 276.07 32.0508C274.586 32.0508 273.387 31.7148 272.473 31.043C271.559 30.3789 271.117 29.375 271.148 28.0312ZM272.895 20.5547C272.895 22.1875 273.219 23.3789 273.867 24.1289C274.516 24.8789 275.328 25.2539 276.305 25.2539C277.273 25.2539 278.086 24.8828 278.742 24.1406C279.398 23.3906 279.727 22.2188 279.727 20.625C279.727 19.1016 279.387 17.9531 278.707 17.1797C278.035 16.4062 277.223 16.0195 276.27 16.0195C275.332 16.0195 274.535 16.4023 273.879 17.168C273.223 17.9258 272.895 19.0547 272.895 20.5547ZM300.094 22.9922L302.273 23.2617C301.93 24.5352 301.293 25.5234 300.363 26.2266C299.434 26.9297 298.246 27.2812 296.801 27.2812C294.98 27.2812 293.535 26.7227 292.465 25.6055C291.402 24.4805 290.871 22.9062 290.871 20.8828C290.871 18.7891 291.41 17.1641 292.488 16.0078C293.566 14.8516 294.965 14.2734 296.684 14.2734C298.348 14.2734 299.707 14.8398 300.762 15.9727C301.816 17.1055 302.344 18.6992 302.344 20.7539C302.344 20.8789 302.34 21.0664 302.332 21.3164H293.051C293.129 22.6836 293.516 23.7305 294.211 24.457C294.906 25.1836 295.773 25.5469 296.812 25.5469C297.586 25.5469 298.246 25.3438 298.793 24.9375C299.34 24.5312 299.773 23.8828 300.094 22.9922ZM293.168 19.582H300.117C300.023 18.5352 299.758 17.75 299.32 17.2266C298.648 16.4141 297.777 16.0078 296.707 16.0078C295.738 16.0078 294.922 16.332 294.258 16.9805C293.602 17.6289 293.238 18.4961 293.168 19.582ZM304.887 27V9.82031H306.996V27H304.887ZM310.289 12.2461V9.82031H312.398V12.2461H310.289ZM310.289 27V14.5547H312.398V27H310.289ZM320.227 25.1133L320.531 26.9766C319.938 27.1016 319.406 27.1641 318.938 27.1641C318.172 27.1641 317.578 27.043 317.156 26.8008C316.734 26.5586 316.438 26.2422 316.266 25.8516C316.094 25.4531 316.008 24.6211 316.008 23.3555V16.1953H314.461V14.5547H316.008V11.4727L318.105 10.207V14.5547H320.227V16.1953H318.105V23.4727C318.105 24.0742 318.141 24.4609 318.211 24.6328C318.289 24.8047 318.41 24.9414 318.574 25.043C318.746 25.1445 318.988 25.1953 319.301 25.1953C319.535 25.1953 319.844 25.168 320.227 25.1133ZM328.137 23.2852L330.223 22.957C330.34 23.793 330.664 24.4336 331.195 24.8789C331.734 25.3242 332.484 25.5469 333.445 25.5469C334.414 25.5469 335.133 25.3516 335.602 24.9609C336.07 24.5625 336.305 24.0977 336.305 23.5664C336.305 23.0898 336.098 22.7148 335.684 22.4414C335.395 22.2539 334.676 22.0156 333.527 21.7266C331.98 21.3359 330.906 21 330.305 20.7188C329.711 20.4297 329.258 20.0352 328.945 19.5352C328.641 19.0273 328.488 18.4688 328.488 17.8594C328.488 17.3047 328.613 16.793 328.863 16.3242C329.121 15.8477 329.469 15.4531 329.906 15.1406C330.234 14.8984 330.68 14.6953 331.242 14.5312C331.812 14.3594 332.422 14.2734 333.07 14.2734C334.047 14.2734 334.902 14.4141 335.637 14.6953C336.379 14.9766 336.926 15.3594 337.277 15.8438C337.629 16.3203 337.871 16.9609 338.004 17.7656L335.941 18.0469C335.848 17.4062 335.574 16.9062 335.121 16.5469C334.676 16.1875 334.043 16.0078 333.223 16.0078C332.254 16.0078 331.562 16.168 331.148 16.4883C330.734 16.8086 330.527 17.1836 330.527 17.6133C330.527 17.8867 330.613 18.1328 330.785 18.3516C330.957 18.5781 331.227 18.7656 331.594 18.9141C331.805 18.9922 332.426 19.1719 333.457 19.4531C334.949 19.8516 335.988 20.1797 336.574 20.4375C337.168 20.6875 337.633 21.0547 337.969 21.5391C338.305 22.0234 338.473 22.625 338.473 23.3438C338.473 24.0469 338.266 24.7109 337.852 25.3359C337.445 25.9531 336.855 26.4336 336.082 26.7773C335.309 27.1133 334.434 27.2812 333.457 27.2812C331.84 27.2812 330.605 26.9453 329.754 26.2734C328.91 25.6016 328.371 24.6055 328.137 23.2852ZM349.5 22.9922L351.68 23.2617C351.336 24.5352 350.699 25.5234 349.77 26.2266C348.84 26.9297 347.652 27.2812 346.207 27.2812C344.387 27.2812 342.941 26.7227 341.871 25.6055C340.809 24.4805 340.277 22.9062 340.277 20.8828C340.277 18.7891 340.816 17.1641 341.895 16.0078C342.973 14.8516 344.371 14.2734 346.09 14.2734C347.754 14.2734 349.113 14.8398 350.168 15.9727C351.223 17.1055 351.75 18.6992 351.75 20.7539C351.75 20.8789 351.746 21.0664 351.738 21.3164H342.457C342.535 22.6836 342.922 23.7305 343.617 24.457C344.312 25.1836 345.18 25.5469 346.219 25.5469C346.992 25.5469 347.652 25.3438 348.199 24.9375C348.746 24.5312 349.18 23.8828 349.5 22.9922ZM342.574 19.582H349.523C349.43 18.5352 349.164 17.75 348.727 17.2266C348.055 16.4141 347.184 16.0078 346.113 16.0078C345.145 16.0078 344.328 16.332 343.664 16.9805C343.008 17.6289 342.645 18.4961 342.574 19.582ZM362.414 27V25.4297C361.625 26.6641 360.465 27.2812 358.934 27.2812C357.941 27.2812 357.027 27.0078 356.191 26.4609C355.363 25.9141 354.719 25.1523 354.258 24.1758C353.805 23.1914 353.578 22.0625 353.578 20.7891C353.578 19.5469 353.785 18.4219 354.199 17.4141C354.613 16.3984 355.234 15.6211 356.062 15.082C356.891 14.543 357.816 14.2734 358.84 14.2734C359.59 14.2734 360.258 14.4336 360.844 14.7539C361.43 15.0664 361.906 15.4766 362.273 15.9844V9.82031H364.371V27H362.414ZM355.746 20.7891C355.746 22.3828 356.082 23.5742 356.754 24.3633C357.426 25.1523 358.219 25.5469 359.133 25.5469C360.055 25.5469 360.836 25.1719 361.477 24.4219C362.125 23.6641 362.449 22.5117 362.449 20.9648C362.449 19.2617 362.121 18.0117 361.465 17.2148C360.809 16.418 360 16.0195 359.039 16.0195C358.102 16.0195 357.316 16.4023 356.684 17.168C356.059 17.9336 355.746 19.1406 355.746 20.7891ZM382.453 27V25.4297C381.664 26.6641 380.504 27.2812 378.973 27.2812C377.98 27.2812 377.066 27.0078 376.23 26.4609C375.402 25.9141 374.758 25.1523 374.297 24.1758C373.844 23.1914 373.617 22.0625 373.617 20.7891C373.617 19.5469 373.824 18.4219 374.238 17.4141C374.652 16.3984 375.273 15.6211 376.102 15.082C376.93 14.543 377.855 14.2734 378.879 14.2734C379.629 14.2734 380.297 14.4336 380.883 14.7539C381.469 15.0664 381.945 15.4766 382.312 15.9844V9.82031H384.41V27H382.453ZM375.785 20.7891C375.785 22.3828 376.121 23.5742 376.793 24.3633C377.465 25.1523 378.258 25.5469 379.172 25.5469C380.094 25.5469 380.875 25.1719 381.516 24.4219C382.164 23.6641 382.488 22.5117 382.488 20.9648C382.488 19.2617 382.16 18.0117 381.504 17.2148C380.848 16.418 380.039 16.0195 379.078 16.0195C378.141 16.0195 377.355 16.4023 376.723 17.168C376.098 17.9336 375.785 19.1406 375.785 20.7891ZM386.953 20.7773C386.953 18.4727 387.594 16.7656 388.875 15.6562C389.945 14.7344 391.25 14.2734 392.789 14.2734C394.5 14.2734 395.898 14.8359 396.984 15.9609C398.07 17.0781 398.613 18.625 398.613 20.6016C398.613 22.2031 398.371 23.4648 397.887 24.3867C397.41 25.3008 396.711 26.0117 395.789 26.5195C394.875 27.0273 393.875 27.2812 392.789 27.2812C391.047 27.2812 389.637 26.7227 388.559 25.6055C387.488 24.4883 386.953 22.8789 386.953 20.7773ZM389.121 20.7773C389.121 22.3711 389.469 23.5664 390.164 24.3633C390.859 25.1523 391.734 25.5469 392.789 25.5469C393.836 25.5469 394.707 25.1484 395.402 24.3516C396.098 23.5547 396.445 22.3398 396.445 20.707C396.445 19.168 396.094 18.0039 395.391 17.2148C394.695 16.418 393.828 16.0195 392.789 16.0195C391.734 16.0195 390.859 16.4141 390.164 17.2031C389.469 17.9922 389.121 19.1836 389.121 20.7773Z" fill="white"/>
<defs>
<clipPath id="clip0_65_592">
<rect width="39" height="37" fill="white"/>
</clipPath>
</defs>
</svg>
